<svg width="27" height="26" viewBox="0 0 27 26" fill="none" xmlns="http://www.w3.org/2000/svg">
<path fill-rule="evenodd" clip-rule="evenodd" d="M13.5 0C6.32 0 0.5 5.82 0.5 13C0.5 20.18 6.32 26 13.5 26C20.68 26 26.5 20.18 26.5 13C26.5 5.82 20.68 0 13.5 0ZM10 8C9.28 8 8.896 8.55867 8.752 8.84533C8.58093 9.20593 8.49473 9.60092 8.5 10C8.5 10.3973 8.57867 10.8067 8.752 11.1547C8.896 11.4413 9.27867 12 10 12C10.72 12 11.104 11.4413 11.248 11.1547C11.4213 10.808 11.5 10.3973 11.5 10C11.5 9.60267 11.4213 9.19333 11.248 8.84533C11.104 8.55867 10.7213 8 10 8ZM15.752 8.84533C15.896 8.55867 16.2787 8 17 8C17.72 8 18.104 8.55867 18.248 8.84533C18.4213 9.192 18.5 9.60267 18.5 10C18.5 10.3973 18.4213 10.8067 18.248 11.1547C18.104 11.4413 17.7213 12 17 12C16.28 12 15.896 11.4413 15.752 11.1547C15.5809 10.7941 15.4947 10.3991 15.5 10C15.5 9.60267 15.5787 9.19333 15.752 8.84533ZM18.4493 17.9493C18.5476 17.8578 18.6264 17.7474 18.681 17.6247C18.7357 17.5021 18.7651 17.3696 18.7675 17.2354C18.7698 17.1011 18.7451 16.9677 18.6948 16.8432C18.6445 16.7187 18.5697 16.6056 18.4747 16.5106C18.3798 16.4157 18.2666 16.3408 18.1421 16.2905C18.0176 16.2402 17.8842 16.2155 17.75 16.2179C17.6157 16.2202 17.4833 16.2496 17.3606 16.3043C17.238 16.3589 17.1276 16.4378 17.036 16.536C16.5717 17.0004 16.0204 17.3688 15.4137 17.6202C14.807 17.8716 14.1567 18.0009 13.5 18.0009C12.8433 18.0009 12.193 17.8716 11.5863 17.6202C10.9796 17.3688 10.4283 17.0004 9.964 16.536C9.77443 16.3594 9.52371 16.2632 9.26464 16.2678C9.00557 16.2723 8.75839 16.3773 8.57517 16.5605C8.39195 16.7437 8.287 16.9909 8.28243 17.25C8.27786 17.509 8.37403 17.7598 8.55067 17.9493C9.86339 19.2618 11.6437 19.9992 13.5 19.9992C15.3563 19.9992 17.1366 19.2618 18.4493 17.9493Z" fill="#5E44FF"/>
</svg>
