<svg width="29" height="26" viewBox="0 0 29 26" fill="none" xmlns="http://www.w3.org/2000/svg">
<path fill-rule="evenodd" clip-rule="evenodd" d="M1.5 0C1.23478 0 0.98043 0.105357 0.792893 0.292893C0.605357 0.480429 0.5 0.734783 0.5 1C0.5 1.26522 0.605357 1.51957 0.792893 1.70711C0.98043 1.89464 1.23478 2 1.5 2H2.5V16C2.5 17.0609 2.92143 18.0783 3.67157 18.8284C4.42172 19.5786 5.43913 20 6.5 20H8.11333L6.55067 24.684C6.46686 24.9358 6.4865 25.2105 6.60527 25.4478C6.72405 25.6851 6.93222 25.8655 7.184 25.9493C7.43578 26.0331 7.71054 26.0135 7.94783 25.8947C8.18513 25.7759 8.36553 25.5678 8.44933 25.316L8.888 24H20.112L20.552 25.316C20.643 25.5581 20.8243 25.7555 21.0578 25.8668C21.2913 25.978 21.5589 25.9945 21.8042 25.9127C22.0496 25.8309 22.2537 25.6572 22.3738 25.4281C22.4938 25.199 22.5204 24.9323 22.448 24.684L20.888 20H22.5C23.5609 20 24.5783 19.5786 25.3284 18.8284C26.0786 18.0783 26.5 17.0609 26.5 16V2H27.5C27.7652 2 28.0196 1.89464 28.2071 1.70711C28.3946 1.51957 28.5 1.26522 28.5 1C28.5 0.734783 28.3946 0.480429 28.2071 0.292893C28.0196 0.105357 27.7652 0 27.5 0H1.5ZM10.22 20H18.78L19.4467 22H9.55333L10.22 20ZM21 8.00667C21.1146 7.94148 21.2153 7.85427 21.2961 7.75004C21.3769 7.64581 21.4363 7.52663 21.4708 7.39936C21.5054 7.27209 21.5144 7.13924 21.4974 7.00845C21.4804 6.87768 21.4377 6.75155 21.3718 6.63734C21.3058 6.52313 21.2179 6.42309 21.1132 6.34298C21.0084 6.26287 20.8888 6.20428 20.7613 6.17057C20.6338 6.13686 20.5009 6.1287 20.3703 6.14657C20.2396 6.16443 20.1138 6.20797 20 6.27467C18.1821 7.32697 16.5738 8.7056 15.256 10.3413L13.2067 8.29333C13.0192 8.10607 12.765 8.00088 12.5 8.00088C12.235 8.00088 11.9808 8.10607 11.7933 8.29333L7.79333 12.2933C7.69508 12.3849 7.61628 12.4953 7.56163 12.6179C7.50697 12.7406 7.47758 12.873 7.47521 13.0073C7.47284 13.1416 7.49754 13.2749 7.54784 13.3995C7.59813 13.524 7.67299 13.6371 7.76795 13.732C7.86291 13.827 7.97602 13.9019 8.10054 13.9522C8.22505 14.0025 8.35843 14.0272 8.4927 14.0248C8.62697 14.0224 8.75939 13.993 8.88205 13.9384C9.00472 13.8837 9.11512 13.8049 9.20667 13.7067L12.5 10.4133L14.656 12.5707C14.7594 12.6741 14.8843 12.7536 15.0218 12.8035C15.1593 12.8534 15.3061 12.8726 15.4518 12.8596C15.5975 12.8467 15.7386 12.8019 15.8651 12.7285C15.9916 12.655 16.1005 12.5547 16.184 12.4347C17.446 10.6241 19.09 9.11253 21 8.00667Z" fill="#5E44FF"/>
</svg>
